<svg width="30" height="35" viewBox="0 0 30 35" fill="none" xmlns="http://www.w3.org/2000/svg">
<g filter="url(#filter0_dd_59_694)">
<circle cx="15" cy="16" r="11" fill="#A0153E"/>
<g filter="url(#filter1_ii_59_694)">
<path d="M19.8 16.3125V14.6875H23V16.3125H19.8ZM20.76 22L18.2 20.05L19.16 18.75L21.72 20.7L20.76 22ZM19.16 12.25L18.2 10.95L20.76 9L21.72 10.3L19.16 12.25ZM9.4 21.1875V17.9375H8.6C8.16 17.9375 7.78333 17.7784 7.47 17.4602C7.15667 17.1419 7 16.7594 7 16.3125V14.6875C7 14.2406 7.15667 13.8581 7.47 13.5398C7.78333 13.2216 8.16 13.0625 8.6 13.0625H11.8L15.8 10.625V20.375L11.8 17.9375H11V21.1875H9.4ZM14.2 17.4906V13.5094L12.24 14.6875H8.6V16.3125H12.24L14.2 17.4906ZM16.6 18.2219V12.7781C16.96 13.1031 17.25 13.4992 17.47 13.9664C17.69 14.4336 17.8 14.9448 17.8 15.5C17.8 16.0552 17.69 16.5664 17.47 17.0336C17.25 17.5008 16.96 17.8969 16.6 18.2219Z" fill="#00224D"/>
</g>
</g>
<defs>
<filter id="filter0_dd_59_694" x="0" y="0" width="30" height="35" filterUnits="userSpaceOnUse" color-interpolation-filters="sRGB">
<feFlood flood-opacity="0" result="BackgroundImageFix"/>
<feColorMatrix in="SourceAlpha" type="matrix" values="0 0 0 0 0 0 0 0 0 0 0 0 0 0 0 0 0 0 127 0" result="hardAlpha"/>
<feOffset dy="4"/>
<feGaussianBlur stdDeviation="2"/>
<feComposite in2="hardAlpha" operator="out"/>
<feColorMatrix type="matrix" values="0 0 0 0 0 0 0 0 0 0 0 0 0 0 0 0 0 0 0.25 0"/>
<feBlend mode="normal" in2="BackgroundImageFix" result="effect1_dropShadow_59_694"/>
<feColorMatrix in="SourceAlpha" type="matrix" values="0 0 0 0 0 0 0 0 0 0 0 0 0 0 0 0 0 0 127 0" result="hardAlpha"/>
<feOffset dy="-1"/>
<feGaussianBlur stdDeviation="2"/>
<feComposite in2="hardAlpha" operator="out"/>
<feColorMatrix type="matrix" values="0 0 0 0 0 0 0 0 0 0 0 0 0 0 0 0 0 0 0.25 0"/>
<feBlend mode="normal" in2="effect1_dropShadow_59_694" result="effect2_dropShadow_59_694"/>
<feBlend mode="normal" in="SourceGraphic" in2="effect2_dropShadow_59_694" result="shape"/>
</filter>
<filter id="filter1_ii_59_694" x="7" y="9" width="16" height="17" filterUnits="userSpaceOnUse" color-interpolation-filters="sRGB">
<feFlood flood-opacity="0" result="BackgroundImageFix"/>
<feBlend mode="normal" in="SourceGraphic" in2="BackgroundImageFix" result="shape"/>
<feColorMatrix in="SourceAlpha" type="matrix" values="0 0 0 0 0 0 0 0 0 0 0 0 0 0 0 0 0 0 127 0" result="hardAlpha"/>
<feOffset dy="4"/>
<feGaussianBlur stdDeviation="2"/>
<feComposite in2="hardAlpha" operator="arithmetic" k2="-1" k3="1"/>
<feColorMatrix type="matrix" values="0 0 0 0 0 0 0 0 0 0 0 0 0 0 0 0 0 0 0.25 0"/>
<feBlend mode="normal" in2="shape" result="effect1_innerShadow_59_694"/>
<feColorMatrix in="SourceAlpha" type="matrix" values="0 0 0 0 0 0 0 0 0 0 0 0 0 0 0 0 0 0 127 0" result="hardAlpha"/>
<feOffset dy="4"/>
<feGaussianBlur stdDeviation="2"/>
<feComposite in2="hardAlpha" operator="arithmetic" k2="-1" k3="1"/>
<feColorMatrix type="matrix" values="0 0 0 0 0 0 0 0 0 0 0 0 0 0 0 0 0 0 0.25 0"/>
<feBlend mode="normal" in2="effect1_innerShadow_59_694" result="effect2_innerShadow_59_694"/>
</filter>
</defs>
</svg>
