<svg width="30" height="35" viewBox="0 0 30 35" fill="none" xmlns="http://www.w3.org/2000/svg">
<g filter="url(#filter0_dd_59_703)">
<circle cx="15" cy="16" r="11" fill="#A0153E"/>
</g>
<g filter="url(#filter1_ii_59_703)">
<path d="M11.5333 18.1834H16.6V16.9167H11.5333V18.1834ZM11.5333 16.2834H19.1333V15.0167H11.5333V16.2834ZM11.5333 14.3834H19.1333V13.1167H11.5333V14.3834ZM9 23.25V11.85C9 11.5017 9.12403 11.2035 9.37208 10.9555C9.62014 10.7074 9.91833 10.5834 10.2667 10.5834H20.4C20.7483 10.5834 21.0465 10.7074 21.2946 10.9555C21.5426 11.2035 21.6667 11.5017 21.6667 11.85V19.45C21.6667 19.7984 21.5426 20.0966 21.2946 20.3446C21.0465 20.5927 20.7483 20.7167 20.4 20.7167H11.5333L9 23.25ZM10.995 19.45H20.4V11.85H10.2667V20.1625L10.995 19.45Z" fill="#00224D"/>
</g>
<defs>
<filter id="filter0_dd_59_703" x="0" y="0" width="30" height="35" filterUnits="userSpaceOnUse" color-interpolation-filters="sRGB">
<feFlood flood-opacity="0" result="BackgroundImageFix"/>
<feColorMatrix in="SourceAlpha" type="matrix" values="0 0 0 0 0 0 0 0 0 0 0 0 0 0 0 0 0 0 127 0" result="hardAlpha"/>
<feOffset dy="4"/>
<feGaussianBlur stdDeviation="2"/>
<feComposite in2="hardAlpha" operator="out"/>
<feColorMatrix type="matrix" values="0 0 0 0 0 0 0 0 0 0 0 0 0 0 0 0 0 0 0.25 0"/>
<feBlend mode="normal" in2="BackgroundImageFix" result="effect1_dropShadow_59_703"/>
<feColorMatrix in="SourceAlpha" type="matrix" values="0 0 0 0 0 0 0 0 0 0 0 0 0 0 0 0 0 0 127 0" result="hardAlpha"/>
<feOffset dy="-1"/>
<feGaussianBlur stdDeviation="2"/>
<feComposite in2="hardAlpha" operator="out"/>
<feColorMatrix type="matrix" values="0 0 0 0 0 0 0 0 0 0 0 0 0 0 0 0 0 0 0.25 0"/>
<feBlend mode="normal" in2="effect1_dropShadow_59_703" result="effect2_dropShadow_59_703"/>
<feBlend mode="normal" in="SourceGraphic" in2="effect2_dropShadow_59_703" result="shape"/>
</filter>
<filter id="filter1_ii_59_703" x="9" y="10.5834" width="12.6667" height="16.6666" filterUnits="userSpaceOnUse" color-interpolation-filters="sRGB">
<feFlood flood-opacity="0" result="BackgroundImageFix"/>
<feBlend mode="normal" in="SourceGraphic" in2="BackgroundImageFix" result="shape"/>
<feColorMatrix in="SourceAlpha" type="matrix" values="0 0 0 0 0 0 0 0 0 0 0 0 0 0 0 0 0 0 127 0" result="hardAlpha"/>
<feOffset dy="4"/>
<feGaussianBlur stdDeviation="2"/>
<feComposite in2="hardAlpha" operator="arithmetic" k2="-1" k3="1"/>
<feColorMatrix type="matrix" values="0 0 0 0 0 0 0 0 0 0 0 0 0 0 0 0 0 0 0.25 0"/>
<feBlend mode="normal" in2="shape" result="effect1_innerShadow_59_703"/>
<feColorMatrix in="SourceAlpha" type="matrix" values="0 0 0 0 0 0 0 0 0 0 0 0 0 0 0 0 0 0 127 0" result="hardAlpha"/>
<feOffset dy="4"/>
<feGaussianBlur stdDeviation="2"/>
<feComposite in2="hardAlpha" operator="arithmetic" k2="-1" k3="1"/>
<feColorMatrix type="matrix" values="0 0 0 0 0 0 0 0 0 0 0 0 0 0 0 0 0 0 0.25 0"/>
<feBlend mode="normal" in2="effect1_innerShadow_59_703" result="effect2_innerShadow_59_703"/>
</filter>
</defs>
</svg>
