<svg width="30" height="35" viewBox="0 0 30 35" fill="none" xmlns="http://www.w3.org/2000/svg">
<g filter="url(#filter0_dd_59_707)">
<circle cx="15" cy="16" r="11" fill="#A0153E"/>
</g>
<g filter="url(#filter1_ii_59_707)">
<path d="M9 21V19.8689C9.46 19.8689 9.915 19.8406 10.365 19.7841C10.815 19.7275 11.255 19.6238 11.685 19.473C11.225 19.2562 10.8625 18.9428 10.5975 18.5328C10.3325 18.1228 10.2 17.6774 10.2 17.1967V15.91H12.6V14.2134H14.625L12.66 10.509L13.74 10L15.705 13.7044C15.905 14.0814 15.89 14.449 15.66 14.8072C15.43 15.1654 15.09 15.3445 14.64 15.3445H13.8V15.91C13.8 16.2211 13.6825 16.4874 13.4475 16.7089C13.2125 16.9304 12.93 17.0411 12.6 17.0411H11.4V17.1967C11.4 17.5266 11.5075 17.8164 11.7225 18.0662C11.9375 18.316 12.21 18.4833 12.54 18.5681L12.72 18.6105C13.12 18.7048 13.345 18.9404 13.395 19.3175C13.445 19.6945 13.29 19.9773 12.93 20.1658C12.33 20.4769 11.6975 20.6937 11.0325 20.8162C10.3675 20.9387 9.69 21 9 21ZM17.58 19.3882L16.725 18.5964C16.935 18.3985 17.1 18.1699 17.22 17.9107C17.34 17.6515 17.4 17.371 17.4 17.0694C17.4 16.7678 17.34 16.4874 17.22 16.2281C17.1 15.9689 16.935 15.7404 16.725 15.5424L17.58 14.7365C17.9 15.0381 18.15 15.3892 18.33 15.7898C18.51 16.1904 18.6 16.617 18.6 17.0694C18.6 17.5219 18.51 17.946 18.33 18.3419C18.15 18.7378 17.9 19.0865 17.58 19.3882ZM19.275 21L18.42 20.1941C18.85 19.7888 19.1875 19.3198 19.4325 18.7873C19.6775 18.2547 19.8 17.6821 19.8 17.0694C19.8 16.4473 19.6775 15.8723 19.4325 15.3445C19.1875 14.8166 18.85 14.35 18.42 13.9447L19.275 13.1388C19.815 13.6478 20.2375 14.2369 20.5425 14.9062C20.8475 15.5754 21 16.2965 21 17.0694C21 17.8329 20.8475 18.5516 20.5425 19.2256C20.2375 19.8995 19.815 20.491 19.275 21Z" fill="#00224D"/>
</g>
<defs>
<filter id="filter0_dd_59_707" x="0" y="0" width="30" height="35" filterUnits="userSpaceOnUse" color-interpolation-filters="sRGB">
<feFlood flood-opacity="0" result="BackgroundImageFix"/>
<feColorMatrix in="SourceAlpha" type="matrix" values="0 0 0 0 0 0 0 0 0 0 0 0 0 0 0 0 0 0 127 0" result="hardAlpha"/>
<feOffset dy="4"/>
<feGaussianBlur stdDeviation="2"/>
<feComposite in2="hardAlpha" operator="out"/>
<feColorMatrix type="matrix" values="0 0 0 0 0 0 0 0 0 0 0 0 0 0 0 0 0 0 0.25 0"/>
<feBlend mode="normal" in2="BackgroundImageFix" result="effect1_dropShadow_59_707"/>
<feColorMatrix in="SourceAlpha" type="matrix" values="0 0 0 0 0 0 0 0 0 0 0 0 0 0 0 0 0 0 127 0" result="hardAlpha"/>
<feOffset dy="-1"/>
<feGaussianBlur stdDeviation="2"/>
<feComposite in2="hardAlpha" operator="out"/>
<feColorMatrix type="matrix" values="0 0 0 0 0 0 0 0 0 0 0 0 0 0 0 0 0 0 0.25 0"/>
<feBlend mode="normal" in2="effect1_dropShadow_59_707" result="effect2_dropShadow_59_707"/>
<feBlend mode="normal" in="SourceGraphic" in2="effect2_dropShadow_59_707" result="shape"/>
</filter>
<filter id="filter1_ii_59_707" x="9" y="10" width="12" height="15" filterUnits="userSpaceOnUse" color-interpolation-filters="sRGB">
<feFlood flood-opacity="0" result="BackgroundImageFix"/>
<feBlend mode="normal" in="SourceGraphic" in2="BackgroundImageFix" result="shape"/>
<feColorMatrix in="SourceAlpha" type="matrix" values="0 0 0 0 0 0 0 0 0 0 0 0 0 0 0 0 0 0 127 0" result="hardAlpha"/>
<feOffset dy="4"/>
<feGaussianBlur stdDeviation="2"/>
<feComposite in2="hardAlpha" operator="arithmetic" k2="-1" k3="1"/>
<feColorMatrix type="matrix" values="0 0 0 0 0 0 0 0 0 0 0 0 0 0 0 0 0 0 0.25 0"/>
<feBlend mode="normal" in2="shape" result="effect1_innerShadow_59_707"/>
<feColorMatrix in="SourceAlpha" type="matrix" values="0 0 0 0 0 0 0 0 0 0 0 0 0 0 0 0 0 0 127 0" result="hardAlpha"/>
<feOffset dy="4"/>
<feGaussianBlur stdDeviation="2"/>
<feComposite in2="hardAlpha" operator="arithmetic" k2="-1" k3="1"/>
<feColorMatrix type="matrix" values="0 0 0 0 0 0 0 0 0 0 0 0 0 0 0 0 0 0 0.25 0"/>
<feBlend mode="normal" in2="effect1_innerShadow_59_707" result="effect2_innerShadow_59_707"/>
</filter>
</defs>
</svg>
